<svg version="1.1" id="Layer_1" xmlns="http://www.w3.org/2000/svg" xmlns:xlink="http://www.w3.org/1999/xlink" x="0px" y="0px"
	 width="100%" viewBox="0 0 2160 2160" enable-background="new 0 0 2160 2160" xml:space="preserve">
<path fill="#000000" opacity="1.000000" stroke="none" 
	d="
M1154.000000,2162.000000 
	C769.377625,2162.000000 385.755219,2162.000000 2.066410,2162.000000 
	C2.066410,1442.127319 2.066410,722.254700 2.066410,2.191036 
	C721.789490,2.191036 1441.579102,2.191036 2161.684326,2.191036 
	C2161.684326,721.999878 2161.684326,1441.999878 2161.684326,2162.000000 
	C1826.253784,2162.000000 1490.626831,2162.000000 1154.000000,2162.000000 
M628.906616,1874.120605 
	C621.085938,1872.733032 613.154236,1871.793579 605.461975,1869.887695 
	C535.653015,1852.592529 483.443909,1814.772949 457.910461,1744.828125 
	C443.924622,1706.516357 424.209045,1671.138428 398.397675,1639.338989 
	C381.933594,1619.055298 363.624969,1601.202393 340.246918,1588.534790 
	C323.401825,1579.407104 309.623840,1566.222168 301.002808,1548.504883 
	C296.498169,1539.247314 297.990051,1534.660889 307.283203,1530.155884 
	C309.641266,1529.012451 312.256500,1528.359497 314.799316,1527.643799 
	C338.409973,1520.997192 362.078674,1523.818481 384.264893,1531.696167 
	C439.409973,1551.276855 482.731659,1586.055054 512.016113,1637.440430 
	C534.694153,1677.234009 564.545227,1710.098877 605.505737,1731.770874 
	C625.660217,1742.434692 646.922607,1750.136353 670.009460,1750.198486 
	C689.208069,1750.250244 708.443909,1749.505005 727.602844,1748.215210 
	C756.669556,1746.258789 784.310730,1738.203735 811.239441,1727.296143 
	C818.072632,1724.528320 822.584045,1721.160156 822.398804,1713.096802 
	C822.316833,1709.526855 823.513000,1705.917114 824.210632,1702.341431 
	C829.787231,1673.755005 838.539917,1646.195312 854.376465,1621.612061 
	C863.832092,1606.934082 875.291870,1593.547119 886.015259,1579.362305 
	C885.095825,1579.052246 883.354980,1578.149658 881.525330,1577.901367 
	C872.017212,1576.611450 862.480896,1575.531250 852.964539,1574.299805 
	C815.762390,1569.485352 778.981995,1562.463745 742.769226,1552.657959 
	C690.124634,1538.402710 641.003662,1515.942505 594.809692,1487.224731 
	C552.839417,1461.132812 517.182068,1428.077759 489.291870,1387.023071 
	C465.952637,1352.667236 449.470612,1315.003540 435.875702,1275.946289 
	C413.062531,1210.405396 404.743866,1142.448486 402.477997,1073.552612 
	C401.954742,1057.642822 402.631592,1041.630493 403.815369,1025.744141 
	C405.217102,1006.932739 406.832947,988.048401 409.988525,969.472900 
	C420.351349,908.470947 444.502014,853.172485 481.316101,803.491943 
	C490.965973,790.469421 501.574127,778.156921 511.837524,765.399841 
	C494.514282,720.267273 486.560974,673.730286 489.481171,625.213013 
	C491.507812,591.541504 497.473083,558.735474 507.050964,526.531799 
	C511.477692,511.647797 516.835815,497.040771 521.692078,482.545776 
	C527.721069,481.641754 532.603821,480.698059 537.531738,480.207733 
	C557.691772,478.201752 577.288940,481.733093 596.541809,487.121216 
	C641.495544,499.701935 683.850586,518.941956 725.915283,538.765808 
	C754.861328,552.407227 781.426697,570.218811 808.142761,587.683777 
	C813.389832,591.113953 818.038391,592.434692 824.687500,590.847717 
	C854.671997,583.691223 884.751038,576.819031 915.012512,570.963684 
	C951.161804,563.968994 987.836426,560.399780 1024.565063,558.558228 
	C1052.099731,557.177612 1079.738770,557.810242 1107.332031,557.686035 
	C1137.587402,557.549805 1167.640747,560.312317 1197.707275,563.526855 
	C1246.299438,568.722168 1294.051270,578.126831 1341.198242,590.713684 
	C1347.611450,592.425781 1352.365356,591.732361 1357.880737,588.111450 
	C1399.865112,560.548706 1442.720215,534.535400 1489.270264,515.132996 
	C1519.623535,502.481506 1549.933105,489.749969 1582.314697,483.088776 
	C1599.969727,479.457001 1617.718506,478.100708 1635.720215,481.270050 
	C1641.145874,482.225281 1643.738159,484.665863 1645.511353,489.483978 
	C1665.274902,543.187866 1678.335327,598.047424 1676.476807,655.848450 
	C1675.650146,681.556030 1672.270020,706.744568 1665.330811,731.440125 
	C1662.028198,743.193420 1657.925415,754.721985 1654.240845,766.179688 
	C1682.229004,797.963013 1703.356201,828.113403 1718.508667,857.561462 
	C1748.709106,916.254517 1762.528198,979.002319 1763.421997,1044.595947 
	C1763.783203,1071.108398 1762.002319,1097.696411 1760.156616,1124.177612 
	C1758.752930,1144.316406 1756.536255,1164.478760 1753.229248,1184.389404 
	C1744.649536,1236.045776 1729.572632,1285.835449 1707.405640,1333.339355 
	C1685.882935,1379.462524 1656.418823,1419.604004 1617.228027,1452.469482 
	C1593.682129,1472.215210 1568.397705,1489.177368 1541.354980,1503.744019 
	C1499.638550,1526.214600 1456.288696,1544.488892 1410.207764,1555.806641 
	C1371.865723,1565.223633 1333.094116,1572.384277 1293.775146,1576.399414 
	C1288.380493,1576.950195 1283.054077,1578.169922 1276.004150,1579.367310 
	C1280.508423,1583.916504 1283.701172,1587.204712 1286.962524,1590.423584 
	C1299.626953,1602.922852 1309.601074,1617.337646 1317.844849,1633.062500 
	C1338.508423,1672.477783 1346.964722,1715.089844 1347.367310,1758.885010 
	C1348.301392,1860.540283 1347.655273,1962.209961 1347.693481,2063.873779 
	C1347.695435,2068.858887 1347.633057,2073.922119 1348.427368,2078.814697 
	C1351.302368,2096.523926 1359.865234,2110.813232 1376.077515,2119.137207 
	C1387.990967,2125.253906 1401.369141,2125.732910 1414.064575,2122.851562 
	C1428.235718,2119.635254 1442.117432,2114.807373 1455.782349,2109.753662 
	C1527.381226,2083.273926 1595.612183,2049.937744 1659.962158,2008.751343 
	C1717.845093,1971.703857 1771.487549,1929.252563 1820.795288,1881.458496 
	C1840.844482,1862.024658 1859.719238,1841.345215 1878.605103,1820.752808 
	C1912.595093,1783.691528 1942.878174,1743.676025 1971.081299,1702.091797 
	C2001.735352,1656.893555 2028.887573,1609.688721 2052.189453,1560.250244 
	C2068.778564,1525.053589 2083.540283,1489.144287 2095.981689,1452.296753 
	C2115.344238,1394.950439 2129.346680,1336.338623 2138.639648,1276.482300 
	C2147.060059,1222.246338 2150.063965,1167.677490 2151.560547,1112.956665 
	C2151.850342,1102.368408 2150.864014,1091.738525 2150.318848,1081.135376 
	C2149.041260,1056.283936 2147.923096,1031.420410 2146.282715,1006.592163 
	C2144.030273,972.497131 2138.682129,938.813843 2132.501221,905.220642 
	C2121.052979,843.000061 2103.687012,782.496826 2080.915283,723.519165 
	C2056.903809,661.330200 2026.872314,602.147400 1991.830444,545.463135 
	C1953.235840,483.032410 1908.771484,425.057617 1858.154663,371.985260 
	C1835.671265,348.410980 1811.754517,326.117218 1787.520386,304.318542 
	C1748.664673,269.367981 1706.629028,238.443115 1662.759888,210.065643 
	C1599.493652,169.140915 1532.805664,134.841537 1462.339478,108.082893 
	C1421.654663,92.633392 1380.188110,79.647194 1337.784912,69.633545 
	C1301.939575,61.168571 1265.819946,54.503674 1229.324585,49.485455 
	C1194.762817,44.733093 1160.057007,41.561260 1125.267090,40.621357 
	C1092.373047,39.732677 1059.390381,40.598892 1026.492432,41.874184 
	C1001.996155,42.823795 977.546021,45.376907 953.123047,47.714703 
	C910.147217,51.828396 867.837280,59.922295 825.925842,70.126785 
	C751.087280,88.348267 679.219910,114.678818 610.287048,149.088333 
	C561.400818,173.491058 514.643799,201.401703 469.801697,232.604858 
	C426.610138,262.659515 385.844696,295.727509 347.741882,331.942139 
	C307.190460,370.484070 269.801117,411.933014 235.732178,456.424530 
	C182.499542,525.942200 138.032303,600.618225 102.677780,680.639587 
	C73.611038,746.429138 52.059437,814.671570 37.278877,885.142273 
	C22.168262,957.186768 15.886370,1030.058472 14.428832,1103.466309 
	C14.198316,1115.076294 15.089758,1126.717896 15.691864,1138.332886 
	C16.928343,1162.185303 18.106462,1186.044067 19.693892,1209.874390 
	C22.718699,1255.282593 30.359634,1300.010986 39.999004,1344.436401 
	C57.194897,1423.687622 83.997437,1499.586914 119.525253,1572.429565 
	C144.798660,1624.248047 174.448975,1673.488647 207.610550,1720.623047 
	C240.371918,1767.188721 276.393738,1811.143188 315.891754,1852.101562 
	C336.659973,1873.637695 358.555908,1894.167847 380.863922,1914.122314 
	C445.896667,1972.293945 517.872681,2020.420532 595.576050,2059.998047 
	C637.366333,2081.283691 680.574646,2099.318359 724.730774,2115.071289 
	C736.896362,2119.411377 749.072327,2123.877197 762.284424,2124.156982 
	C777.418030,2124.477051 791.555542,2121.571777 802.670471,2110.606934 
	C814.039001,2099.391846 819.787659,2085.458984 819.631226,2069.408447 
	C819.300354,2035.455322 818.634644,2001.505127 818.379822,1967.551514 
	C818.164673,1938.887329 818.335571,1910.220215 818.335571,1881.554321 
	C818.335571,1878.273193 818.335510,1874.991943 818.335510,1870.982910 
	C812.971313,1871.673828 808.440735,1872.219238 803.921509,1872.846191 
	C787.534241,1875.120117 771.205383,1877.987061 754.752563,1879.574097 
	C732.556274,1881.714966 710.213318,1881.518311 687.988464,1880.148315 
	C668.833618,1878.967407 649.770081,1876.304077 628.906616,1874.120605 
z"/>
<path fill="#FFFFFF" opacity="1.000000" stroke="none" 
	d="
M629.786377,1874.208496 
	C649.770081,1876.304077 668.833618,1878.967407 687.988464,1880.148315 
	C710.213318,1881.518311 732.556274,1881.714966 754.752563,1879.574097 
	C771.205383,1877.987061 787.534241,1875.120117 803.921509,1872.846191 
	C808.440735,1872.219238 812.971313,1871.673828 818.335510,1870.982910 
	C818.335510,1874.991943 818.335571,1878.273193 818.335571,1881.554321 
	C818.335571,1910.220215 818.164673,1938.887329 818.379822,1967.551514 
	C818.634644,2001.505127 819.300354,2035.455322 819.631226,2069.408447 
	C819.787659,2085.458984 814.039001,2099.391846 802.670471,2110.606934 
	C791.555542,2121.571777 777.418030,2124.477051 762.284424,2124.156982 
	C749.072327,2123.877197 736.896362,2119.411377 724.730774,2115.071289 
	C680.574646,2099.318359 637.366333,2081.283691 595.576050,2059.998047 
	C517.872681,2020.420532 445.896667,1972.293945 380.863922,1914.122314 
	C358.555908,1894.167847 336.659973,1873.637695 315.891754,1852.101562 
	C276.393738,1811.143188 240.371918,1767.188721 207.610550,1720.623047 
	C174.448975,1673.488647 144.798660,1624.248047 119.525253,1572.429565 
	C83.997437,1499.586914 57.194897,1423.687622 39.999004,1344.436401 
	C30.359634,1300.010986 22.718699,1255.282593 19.693892,1209.874390 
	C18.106462,1186.044067 16.928343,1162.185303 15.691864,1138.332886 
	C15.089758,1126.717896 14.198316,1115.076294 14.428832,1103.466309 
	C15.886370,1030.058472 22.168262,957.186768 37.278877,885.142273 
	C52.059437,814.671570 73.611038,746.429138 102.677780,680.639587 
	C138.032303,600.618225 182.499542,525.942200 235.732178,456.424530 
	C269.801117,411.933014 307.190460,370.484070 347.741882,331.942139 
	C385.844696,295.727509 426.610138,262.659515 469.801697,232.604858 
	C514.643799,201.401703 561.400818,173.491058 610.287048,149.088333 
	C679.219910,114.678818 751.087280,88.348267 825.925842,70.126785 
	C867.837280,59.922295 910.147217,51.828396 953.123047,47.714703 
	C977.546021,45.376907 1001.996155,42.823795 1026.492432,41.874184 
	C1059.390381,40.598892 1092.373047,39.732677 1125.267090,40.621357 
	C1160.057007,41.561260 1194.762817,44.733093 1229.324585,49.485455 
	C1265.819946,54.503674 1301.939575,61.168571 1337.784912,69.633545 
	C1380.188110,79.647194 1421.654663,92.633392 1462.339478,108.082893 
	C1532.805664,134.841537 1599.493652,169.140915 1662.759888,210.065643 
	C1706.629028,238.443115 1748.664673,269.367981 1787.520386,304.318542 
	C1811.754517,326.117218 1835.671265,348.410980 1858.154663,371.985260 
	C1908.771484,425.057617 1953.235840,483.032410 1991.830444,545.463135 
	C2026.872314,602.147400 2056.903809,661.330200 2080.915283,723.519165 
	C2103.687012,782.496826 2121.052979,843.000061 2132.501221,905.220642 
	C2138.682129,938.813843 2144.030273,972.497131 2146.282715,1006.592163 
	C2147.923096,1031.420410 2149.041260,1056.283936 2150.318848,1081.135376 
	C2150.864014,1091.738525 2151.850342,1102.368408 2151.560547,1112.956665 
	C2150.063965,1167.677490 2147.060059,1222.246338 2138.639648,1276.482300 
	C2129.346680,1336.338623 2115.344238,1394.950439 2095.981689,1452.296753 
	C2083.540283,1489.144287 2068.778564,1525.053589 2052.189453,1560.250244 
	C2028.887573,1609.688721 2001.735352,1656.893555 1971.081299,1702.091797 
	C1942.878174,1743.676025 1912.595093,1783.691528 1878.605103,1820.752808 
	C1859.719238,1841.345215 1840.844482,1862.024658 1820.795288,1881.458496 
	C1771.487549,1929.252563 1717.845093,1971.703857 1659.962158,2008.751343 
	C1595.612183,2049.937744 1527.381226,2083.273926 1455.782349,2109.753662 
	C1442.117432,2114.807373 1428.235718,2119.635254 1414.064575,2122.851562 
	C1401.369141,2125.732910 1387.990967,2125.253906 1376.077515,2119.137207 
	C1359.865234,2110.813232 1351.302368,2096.523926 1348.427368,2078.814697 
	C1347.633057,2073.922119 1347.695435,2068.858887 1347.693481,2063.873779 
	C1347.655273,1962.209961 1348.301392,1860.540283 1347.367310,1758.885010 
	C1346.964722,1715.089844 1338.508423,1672.477783 1317.844849,1633.062500 
	C1309.601074,1617.337646 1299.626953,1602.922852 1286.962524,1590.423584 
	C1283.701172,1587.204712 1280.508423,1583.916504 1276.004150,1579.367310 
	C1283.054077,1578.169922 1288.380493,1576.950195 1293.775146,1576.399414 
	C1333.094116,1572.384277 1371.865723,1565.223633 1410.207764,1555.806641 
	C1456.288696,1544.488892 1499.638550,1526.214600 1541.354980,1503.744019 
	C1568.397705,1489.177368 1593.682129,1472.215210 1617.228027,1452.469482 
	C1656.418823,1419.604004 1685.882935,1379.462524 1707.405640,1333.339355 
	C1729.572632,1285.835449 1744.649536,1236.045776 1753.229248,1184.389404 
	C1756.536255,1164.478760 1758.752930,1144.316406 1760.156616,1124.177612 
	C1762.002319,1097.696411 1763.783203,1071.108398 1763.421997,1044.595947 
	C1762.528198,979.002319 1748.709106,916.254517 1718.508667,857.561462 
	C1703.356201,828.113403 1682.229004,797.963013 1654.240845,766.179688 
	C1657.925415,754.721985 1662.028198,743.193420 1665.330811,731.440125 
	C1672.270020,706.744568 1675.650146,681.556030 1676.476807,655.848450 
	C1678.335327,598.047424 1665.274902,543.187866 1645.511353,489.483978 
	C1643.738159,484.665863 1641.145874,482.225281 1635.720215,481.270050 
	C1617.718506,478.100708 1599.969727,479.457001 1582.314697,483.088776 
	C1549.933105,489.749969 1519.623535,502.481506 1489.270264,515.132996 
	C1442.720215,534.535400 1399.865112,560.548706 1357.880737,588.111450 
	C1352.365356,591.732361 1347.611450,592.425781 1341.198242,590.713684 
	C1294.051270,578.126831 1246.299438,568.722168 1197.707275,563.526855 
	C1167.640747,560.312317 1137.587402,557.549805 1107.332031,557.686035 
	C1079.738770,557.810242 1052.099731,557.177612 1024.565063,558.558228 
	C987.836426,560.399780 951.161804,563.968994 915.012512,570.963684 
	C884.751038,576.819031 854.671997,583.691223 824.687500,590.847717 
	C818.038391,592.434692 813.389832,591.113953 808.142761,587.683777 
	C781.426697,570.218811 754.861328,552.407227 725.915283,538.765808 
	C683.850586,518.941956 641.495544,499.701935 596.541809,487.121216 
	C577.288940,481.733093 557.691772,478.201752 537.531738,480.207733 
	C532.603821,480.698059 527.721069,481.641754 521.692078,482.545776 
	C516.835815,497.040771 511.477692,511.647797 507.050964,526.531799 
	C497.473083,558.735474 491.507812,591.541504 489.481171,625.213013 
	C486.560974,673.730286 494.514282,720.267273 511.837524,765.399841 
	C501.574127,778.156921 490.965973,790.469421 481.316101,803.491943 
	C444.502014,853.172485 420.351349,908.470947 409.988525,969.472900 
	C406.832947,988.048401 405.217102,1006.932739 403.815369,1025.744141 
	C402.631592,1041.630493 401.954742,1057.642822 402.477997,1073.552612 
	C404.743866,1142.448486 413.062531,1210.405396 435.875702,1275.946289 
	C449.470612,1315.003540 465.952637,1352.667236 489.291870,1387.023071 
	C517.182068,1428.077759 552.839417,1461.132812 594.809692,1487.224731 
	C641.003662,1515.942505 690.124634,1538.402710 742.769226,1552.657959 
	C778.981995,1562.463745 815.762390,1569.485352 852.964539,1574.299805 
	C862.480896,1575.531250 872.017212,1576.611450 881.525330,1577.901367 
	C883.354980,1578.149658 885.095825,1579.052246 886.015259,1579.362305 
	C875.291870,1593.547119 863.832092,1606.934082 854.376465,1621.612061 
	C838.539917,1646.195312 829.787231,1673.755005 824.210632,1702.341431 
	C823.513000,1705.917114 822.316833,1709.526855 822.398804,1713.096802 
	C822.584045,1721.160156 818.072632,1724.528320 811.239441,1727.296143 
	C784.310730,1738.203735 756.669556,1746.258789 727.602844,1748.215210 
	C708.443909,1749.505005 689.208069,1750.250244 670.009460,1750.198486 
	C646.922607,1750.136353 625.660217,1742.434692 605.505737,1731.770874 
	C564.545227,1710.098877 534.694153,1677.234009 512.016113,1637.440430 
	C482.731659,1586.055054 439.409973,1551.276855 384.264893,1531.696167 
	C362.078674,1523.818481 338.409973,1520.997192 314.799316,1527.643799 
	C312.256500,1528.359497 309.641266,1529.012451 307.283203,1530.155884 
	C297.990051,1534.660889 296.498169,1539.247314 301.002808,1548.504883 
	C309.623840,1566.222168 323.401825,1579.407104 340.246918,1588.534790 
	C363.624969,1601.202393 381.933594,1619.055298 398.397675,1639.338989 
	C424.209045,1671.138428 443.924622,1706.516357 457.910461,1744.828125 
	C483.443909,1814.772949 535.653015,1852.592529 605.461975,1869.887695 
	C613.154236,1871.793579 621.085938,1872.733032 629.786377,1874.208496 
z"/>
</svg>